# xmcd CD database file
#
# Track frame offsets:
#	150
#	23859
#	50710
#	77248
#	105386
#	130609
#	153983
#	182262
#	196292
#	215522
#	234139
#	253224
#	295410
#
# Disc length: 4237 seconds
#
# Revision: 2
# Processed by: cddbd v1.4PL0 Copyright (c) Steve Scherf et al.
# Submitted via: CDex 1.50Beta7
#
DISCID=ac108b0d
DTITLE=Olga Tañon - Olga Viva, Viva Olga
DYEAR=2001
DGENRE=Merengue
TTITLE0=Es Mentiroso
TTITLE1=Presencie Tu Amor
TTITLE2=El Frio De Tu Adios
TTITLE3=Mi Eterno Amor Secreto
TTITLE4=El Papel de Malo
TTITLE5=Muchacho Malo
TTITLE6=Medley Boogaloo
TTITLE7=Me Subes Me Bajas, Me Subes
TTITLE8=Contigo o Sin Ti
TTITLE9=Ah - Ah
TTITLE10=Basta Ya
TTITLE11=Tu Amot (Mix)
TTITLE12=Ya Me Canse
EXTD=YEAR: 2001
EXTT0=
EXTT1=
EXTT2=
EXTT3=
EXTT4=
EXTT5=
EXTT6=
EXTT7=
EXTT8=
EXTT9=
EXTT10=
EXTT11=
EXTT12=
PLAYORDER=
